<?xml version="1.0" encoding="utf-8"?>
<!-- Generator: Adobe Illustrator 16.0.0, SVG Export Plug-In . SVG Version: 6.00 Build 0)  -->
<!DOCTYPE svg PUBLIC "-//W3C//DTD SVG 1.1//EN" "http://www.w3.org/Graphics/SVG/1.1/DTD/svg11.dtd">
<svg version="1.1" id="Mail" xmlns="http://www.w3.org/2000/svg" xmlns:xlink="http://www.w3.org/1999/xlink" x="0px" y="0px"
	 width="15px" height="13px" viewBox="61.999 64.539 15 13" enable-background="new 61.999 64.539 15 13" xml:space="preserve">
<g>
	<path d="M69.5,69.851l6.37-5.287c-0.069-0.015-0.14-0.025-0.211-0.025H63.341c-0.072,0-0.143,0.01-0.212,0.025L69.5,69.851z"/>
	<path d="M69.9,71.896c-0.009,0.008-0.019,0.012-0.027,0.02c-0.009,0.006-0.019,0.012-0.028,0.02
		c-0.05,0.034-0.102,0.062-0.155,0.079c-0.005,0.003-0.011,0.003-0.016,0.006c-0.058,0.017-0.116,0.028-0.175,0.028l0,0
		c0,0-0.001,0-0.001,0c-0.059,0-0.117-0.012-0.175-0.028c-0.005-0.003-0.011-0.003-0.017-0.006
		c-0.053-0.018-0.104-0.045-0.154-0.079c-0.01-0.008-0.019-0.014-0.028-0.02c-0.009-0.008-0.018-0.012-0.027-0.02l-7.078-5.876
		c-0.013,0.1-0.021,0.201-0.021,0.306v9.429c0,0.985,0.601,1.785,1.341,1.785h12.318c0.74,0,1.341-0.8,1.341-1.785v-9.429
		c0-0.104-0.008-0.206-0.021-0.306L69.9,71.896z"/>
</g>
</svg>
